# xmcd CD database file
#
# Track frame offsets:
#	150
#	16800
#	34125
#
# Disc length: 674 seconds
#
# Revision: 0
# Processed by: cddbd v1.5PL3 Copyright (c) Steve Scherf et al.
# Submitted via: CDex 1.50
#
DISCID=1802a003
DTITLE=中村雅俊 - 立ち上がれ
DYEAR=1900
DGENRE=Vocal
TTITLE0=立ち上がれ
TTITLE1=終わらない寂しさを
TTITLE2=立ち上がれ（instrumental）
EXTD=
EXTT0=
EXTT1=
EXTT2=
PLAYORDER=
